<?xml version="1.0" encoding="UTF-8"?><svg xmlns="http://www.w3.org/2000/svg" xmlns:xlink="http://www.w3.org/1999/xlink" width="10.74in" height="4.6in" viewBox="0 0 772.93 331.08"><defs><linearGradient id="a" x1="306.44" y1="51.75" x2="487.52" y2="178.54" gradientUnits="userSpaceOnUse"><stop offset="0.25" stop-color="#e6d090"/><stop offset="0.75" stop-color="#b37d38"/></linearGradient></defs><title>Sigma_Alpha_Epsilon_PRIMARY_Logo_RGB_White+Gold</title><path d="M26.91,335.24c-5.53,0-9.07-1.13-10.87-1.13a9.21,9.21,0,0,0-3.6.87l-2-13.61,2.2-.53c1.2,3,4.54,6.53,13.21,6.6,7.4.07,9.6-2.8,9.6-6.07,0-2.47-2-4.33-5.6-5.73l-7.54-2.94C16.64,310.5,12,306.83,12,299.43c0-9,7.8-13.07,16.54-13.07,4.73,0,8,1,9.53,1a8,8,0,0,0,3.21-.53l1.6,11.73-2.27.47c-1.73-2.73-5.14-5-11.4-5-5.87,0-7.34,2.53-7.34,4.73s1.4,3.54,5.07,4.94l8,3.07c5.67,2.2,10.54,6.13,10.54,14C45.45,329.84,38.58,335.24,26.91,335.24Zm40.59-1.13H52.63v-1.87c1.53,0,2.53-.73,2.53-2.67V291.9c0-1.94-.94-2.67-2.54-2.67v-1.8H67.49v1.8c-1.6,0-2.53.87-2.53,2.67v37.67c0,1.87.94,2.67,2.54,2.67Zm49.25-22.21c-1.4,0-2.33.54-2.33,2.4v12.07a7.24,7.24,0,0,0,.74,3.74c-5.34,2.67-11.94,5-18.08,5-13.27,0-22.94-8-22.94-24.54,0-15.81,11.67-24.21,23.61-24.21,4.66,0,5.66.67,8.33.67a12,12,0,0,0,3.14-.47l2,11.6-1.6.47c-2.47-2.73-5.74-4.2-12.14-4.2-8.6,0-13.34,6.2-13.34,16.14,0,10.67,5.61,16.54,13.61,16.54a15.21,15.21,0,0,0,7.34-1.54V314.3c0-1.66-.8-2.4-2.26-2.4v-2h13.93Zm55.73,22.21H157.94v-1.87c1.6,0,2.6-.93,2.6-2.8V303.83h-.13L149.54,323h-4L135.2,304h-.13v25.54c0,1.87.93,2.73,2.6,2.73v1.87h-14.6v-1.87c1.8,0,2.46-.93,2.46-2.73V292c0-1.47-.74-2.8-2.54-2.8v-1.8h13.27a12,12,0,0,0,1.27,3.27l10.54,19.4h.13L159,290.7a9.69,9.69,0,0,0,1.33-3.27h12.14v1.8c-1.74,0-2.47,1.27-2.47,2.87v37.34c0,1.87.94,2.8,2.47,2.8Zm51.79,0H209.4v-1.87c1.33-.13,1.73-.6,1.73-1.47a5.65,5.65,0,0,0-.33-1.66l-.94-2.74a50.31,50.31,0,0,1-9,.8,59.5,59.5,0,0,1-8.94-.8l-.93,3.07a8.29,8.29,0,0,0-.2,1.54c0,.73.47,1.06,1.8,1.26v1.87H178.65v-1.87c1.14,0,2.14-.53,3.07-3.2l12.53-36.54a7.44,7.44,0,0,0,.47-1.87c0-.73-.26-1.4-1.13-1.4v-1.8h15.54v1.8a1.12,1.12,0,0,0-1.27,1.13,9.23,9.23,0,0,0,.6,2.2l12.87,36.68c.81,2.2,1.81,3,2.94,3Zm-23.61-36.28h-.14l-6.19,20.87a35.8,35.8,0,0,0,6.66.67,32.65,32.65,0,0,0,6.41-.67Zm89.54,36.28H275.33v-1.87c1.33-.13,1.73-.6,1.73-1.47a5.65,5.65,0,0,0-.33-1.66l-.94-2.74a50.39,50.39,0,0,1-9,.8,59.38,59.38,0,0,1-8.94-.8l-.93,3.07a8.29,8.29,0,0,0-.2,1.54c0,.73.47,1.06,1.8,1.26v1.87H244.58v-1.87c1.14,0,2.14-.53,3.07-3.2l12.53-36.54a7.44,7.44,0,0,0,.47-1.87c0-.73-.27-1.4-1.13-1.4v-1.8h15.53v1.8a1.12,1.12,0,0,0-1.26,1.13,8.76,8.76,0,0,0,.6,2.2l12.87,36.68c.8,2.2,1.8,3,2.94,3Zm-23.61-36.28h-.14l-6.2,20.87a35.9,35.9,0,0,0,6.67.67,32.46,32.46,0,0,0,6.4-.67Zm65.19,26.28-2.46,10.33a33.65,33.65,0,0,0-4.34-.33H296.37v-1.87c1.67,0,2.54-.8,2.54-2.73V291.9a2.36,2.36,0,0,0-2.53-2.67v-1.8h15v1.8a2.58,2.58,0,0,0-2.67,2.87v34.14h17.2c2.34,0,3.21-.6,4.27-2.6Zm21.52-6.87c-1.14,0-3.14-.14-4.54-.2v12.47c0,1.87.94,2.73,2.6,2.73v1.87h-14.8v-1.87c1.67,0,2.53-.8,2.53-2.73V291.63c0-1.67-.94-2.4-2.54-2.4v-1.74c3.67-.2,12-.6,16.61-.6,13,0,20.94,3.54,20.94,14.94C374.1,311.24,366.23,317.24,353.3,317.24Zm.53-22.54c-2.07,0-3.87.13-5.07.2v14.33c1.4.07,3.2.14,4.8.14,8.07,0,10.67-3.2,10.67-7.54C364.23,296.9,360.5,294.7,353.83,294.7Zm68.64,39.41H407.6v-1.87c1.6,0,2.53-.8,2.53-2.67V313.24H391.46v16.33c0,1.81.87,2.67,2.53,2.67v1.87h-14.8v-1.87c1.8,0,2.53-.8,2.53-2.67V291.76c0-1.86-.93-2.53-2.6-2.53v-1.8H394v1.8c-1.6,0-2.53.6-2.53,2.53v13.67h18.67V291.76c0-1.93-.93-2.53-2.54-2.53v-1.8h14.88v1.8c-1.74,0-2.54.6-2.54,2.53v37.81c0,1.87.93,2.67,2.53,2.67Zm51.79,0H459.39v-1.87c1.33-.13,1.73-.6,1.73-1.47a5.65,5.65,0,0,0-.33-1.66l-.94-2.74a50.39,50.39,0,0,1-9,.8,59.5,59.5,0,0,1-8.94-.8l-.93,3.07a8.29,8.29,0,0,0-.2,1.54c0,.73.47,1.06,1.8,1.26v1.87H428.64v-1.87c1.14,0,2.14-.53,3.07-3.2l12.53-36.54a7.44,7.44,0,0,0,.47-1.87c0-.73-.27-1.4-1.13-1.4v-1.8h15.54v1.8a1.12,1.12,0,0,0-1.27,1.13,9.23,9.23,0,0,0,.6,2.2l12.87,36.68c.8,2.2,1.81,3,2.94,3Zm-23.61-36.28h-.14l-6.2,20.87a36,36,0,0,0,6.67.67,32.46,32.46,0,0,0,6.4-.67Zm85,26.14-2.4,10.47a27.26,27.26,0,0,0-3.8-.33H500.2v-1.87c1.67,0,2.54-.93,2.54-2.73V292c0-1.8-.93-2.8-2.53-2.8v-1.8h29.34a24.16,24.16,0,0,0,3.6-.34l2.14,10-1.54.53c-1.06-2.07-2.2-2.4-4.07-2.4H512.53v9.2h15.53c1.74,0,2.47-1,2.47-2.13h1.74v12.2h-1.74c0-1.4-.66-2.26-2.46-2.26H512.54v14h17c2.14,0,3.67-.53,4.41-2.8Zm23.52-6.73c-1.14,0-3.14-.14-4.54-.2v12.47c0,1.87.94,2.73,2.6,2.73v1.87H542.39v-1.87c1.67,0,2.53-.8,2.53-2.73V291.63c0-1.67-.93-2.4-2.53-2.4v-1.74c3.66-.2,12-.6,16.6-.6,13,0,20.94,3.54,20.94,14.94C579.93,311.24,572.07,317.24,559.13,317.24Zm.53-22.54c-2.07,0-3.87.13-5.07.2v14.33c1.4.07,3.2.14,4.8.14,8.07,0,10.67-3.2,10.67-7.54C570.06,296.9,566.33,294.7,559.66,294.7Zm41.19,40.54c-5.54,0-9.07-1.13-10.87-1.13a9.22,9.22,0,0,0-3.61.87l-2-13.61,2.2-.53c1.2,3,4.54,6.53,13.21,6.6,7.4.07,9.6-2.8,9.6-6.07,0-2.47-2-4.33-5.6-5.73l-7.54-2.94c-5.67-2.2-10.34-5.87-10.34-13.27,0-9,7.8-13.07,16.54-13.07,4.73,0,8,1,9.54,1a8,8,0,0,0,3.2-.53l1.6,11.73-2.27.47c-1.73-2.73-5.13-5-11.4-5-5.87,0-7.34,2.53-7.34,4.73s1.4,3.54,5.07,4.94l8,3.07c5.67,2.2,10.54,6.13,10.54,14C619.38,329.84,612.52,335.24,600.85,335.24Zm40.58-1.13H626.56v-1.87c1.53,0,2.53-.73,2.53-2.67V291.9c0-1.94-.93-2.67-2.54-2.67v-1.8h14.88v1.8c-1.6,0-2.54.87-2.54,2.67v37.67c0,1.87.93,2.67,2.53,2.67Zm43.32-10-2.46,10.33a33.65,33.65,0,0,0-4.34-.33H649.34v-1.87c1.67,0,2.53-.8,2.53-2.73V291.9a2.36,2.36,0,0,0-2.53-2.67v-1.8h15v1.8a2.58,2.58,0,0,0-2.67,2.87v34.14h17.2c2.34,0,3.2-.6,4.27-2.6Zm25.43,11.13c-12.8,0-23.61-8.73-23.61-24.47,0-16,11-24.41,23.61-24.41,13,0,23.74,8.6,23.74,24.41C733.92,325.84,723.79,335.24,710.18,335.24Zm0-40.74c-7.14,0-13.34,5.53-13.34,16.27,0,10.47,6.07,16.4,13.34,16.4s13.54-5.66,13.54-16.34C723.72,299.9,717.51,294.5,710.18,294.5Zm73.19-5.27a2.38,2.38,0,0,0-2.6,2.47v42.41h-7.47A10.86,10.86,0,0,0,771.7,331L751.76,302.9h-.13v26.67a2.37,2.37,0,0,0,2.6,2.67v1.87h-14v-1.87c1.66,0,2.53-.73,2.53-2.67V291.76a2.35,2.35,0,0,0-2.54-2.53v-1.8h12.07a10.59,10.59,0,0,0,1.67,3.2l17.81,24.81h.13V291.56c0-1.4-.6-2.33-2.53-2.33v-1.8h14Z" transform="translate(-10.44 -4.17)" fill="#fff"/><path d="M362.5,37.34l-.19-27.65a111.17,111.17,0,0,1,69.19,0l-.19,27.65c0,24.85-14,45.81-34.41,55.48C376.5,83.15,362.5,62.19,362.5,37.34Zm144.41,90.48c-12.8,7.21-27.12,14.52-51.47,17.23,35.69-8.48,55.94-27,50.67-48.4-10.39,12-23.91,25.62-52.09,34.29,38.68-19.51,52.66-49.6,38.93-71.16C487,76.53,477.81,98.64,447.6,115.63c35.9-35.07,36.49-71.69,14.56-90.16l-.08,12A93.07,93.07,0,0,1,447.75,87.2a90.44,90.44,0,0,1-27.28,27.59c-.17.11-.32.23-.49.35a44.08,44.08,0,0,1-.2,75.23c-2.53-7.89-7.31-17.51-9.06-26.09s3-13.33,12.86-12.69c-3.32-6.45-9.59-10.27-24.74-9a32.35,32.35,0,0,1,13.2-3c-6.71-12.56-27.83,0-41.12-5.38,1.17,5.21,4.45,9.86,11.56,12.44,0,12.6-4.12,31.23-8.61,43.62v0a44.07,44.07,0,0,1-.08-75.15c-.17-.12-.32-.24-.49-.35A90.44,90.44,0,0,1,346,87.2a93.07,93.07,0,0,1-14.33-49.78l-.08-12c-21.94,18.47-21.34,55.09,14.56,90.16-30.22-17-39.44-39.1-45.35-55.85-13.73,21.56.25,51.65,38.93,71.16-28.18-8.67-41.7-22.25-52.09-34.29-5.27,21.41,15,39.92,50.67,48.4-24.35-2.71-38.68-10-51.47-17.23,1.4,19.13,22.43,29.49,52.65,30.69-20.07,1-33.37-1.66-46.51-4.78,5.51,15.59,25,20,49.61,17a175.83,175.83,0,0,1-38.28,5c8,12,24,12.57,44.53,5.33a169.13,169.13,0,0,1-30.71,11.7c9.38,8.55,22.87,6.35,38.5-3.16a174.5,174.5,0,0,1-23.66,16c10.1,5.44,21.34,1.55,32.91-8.86A181.71,181.71,0,0,1,349.21,215c6.19,3.25,14.87,3.13,23.72,0h0c1.25,13.32,16.72,11.3,19.84,24.51,13.08-1.41,27.28-12.71,28-24.52,8.84,3.1,17.53,3.22,23.72,0a181.71,181.71,0,0,1-16.69-18.15c11.57,10.41,22.81,14.3,32.91,8.86a174.5,174.5,0,0,1-23.66-16c15.63,9.51,29.12,11.71,38.5,3.16a169.13,169.13,0,0,1-30.71-11.7c20.49,7.24,36.52,6.7,44.53-5.33a175.83,175.83,0,0,1-38.28-5c24.61,3,44.1-1.43,49.61-17-13.14,3.12-26.44,5.75-46.51,4.78C484.47,157.31,505.51,147,506.91,127.82Z" transform="translate(-10.44 -4.17)" fill="url(#a)"/></svg>
