<?xml version="1.0" encoding="UTF-8"?><svg preserveAspectRatio="xMidYMid meet" xmlns="http://www.w3.org/2000/svg" xmlns:xlink="http://www.w3.org/1999/xlink" width="3.06in" height="3.27in" viewBox="0 0 220.1 235.33"><defs><linearGradient id="a" x1="29.24" y1="51.75" x2="210.32" y2="178.54" gradientUnits="userSpaceOnUse"><stop offset="0.25" stop-color="#e6d090"/><stop offset="0.75" stop-color="#b37d38"/></linearGradient></defs><title>Sigma_Alpha_Epsilon_PHOENIX_ICON_RGB_Gold</title><path d="M85.3,37.34,85.11,9.69a111.17,111.17,0,0,1,69.19,0l-.19,27.65c0,24.85-14,45.81-34.41,55.48C99.3,83.15,85.3,62.19,85.3,37.34Zm144.41,90.48c-12.8,7.21-27.12,14.52-51.47,17.23,35.69-8.48,55.94-27,50.67-48.4-10.39,12-23.91,25.62-52.09,34.29,38.68-19.51,52.66-49.6,38.93-71.16-5.91,16.75-15.14,38.86-45.35,55.85C206.3,80.56,206.89,43.94,185,25.47l-.08,12A93.07,93.07,0,0,1,170.55,87.2a90.44,90.44,0,0,1-27.28,27.59c-.17.11-.32.23-.49.35a44.08,44.08,0,0,1-.2,75.23c-2.53-7.89-7.31-17.51-9.06-26.09s3-13.33,12.86-12.69c-3.32-6.45-9.59-10.27-24.74-9a32.35,32.35,0,0,1,13.2-3c-6.71-12.56-27.83,0-41.12-5.38,1.17,5.21,4.45,9.86,11.56,12.44,0,12.6-4.12,31.23-8.61,43.62v0a44.07,44.07,0,0,1-.08-75.15c-.17-.12-.32-.24-.49-.35A90.44,90.44,0,0,1,68.82,87.2,93.07,93.07,0,0,1,54.49,37.42l-.08-12C32.47,43.94,33.07,80.56,69,115.63c-30.22-17-39.44-39.1-45.35-55.85-13.73,21.56.25,51.65,38.93,71.16-28.18-8.67-41.7-22.25-52.09-34.29-5.27,21.41,15,39.92,50.67,48.4-24.35-2.71-38.68-10-51.47-17.23,1.4,19.13,22.43,29.49,52.65,30.69-20.07,1-33.37-1.66-46.51-4.78,5.51,15.59,25,20,49.61,17a175.83,175.83,0,0,1-38.28,5c8,12,24,12.57,44.53,5.33A169.13,169.13,0,0,1,41,192.81c9.38,8.55,22.87,6.35,38.5-3.16a174.5,174.5,0,0,1-23.66,16c10.1,5.44,21.34,1.55,32.91-8.86A181.71,181.71,0,0,1,72,215c6.19,3.25,14.87,3.13,23.72,0h0c1.25,13.32,16.72,11.3,19.84,24.51,13.08-1.41,27.28-12.71,28-24.52,8.84,3.1,17.53,3.22,23.72,0a181.71,181.71,0,0,1-16.69-18.15c11.57,10.41,22.81,14.3,32.91,8.86a174.5,174.5,0,0,1-23.66-16c15.63,9.51,29.12,11.71,38.5,3.16a169.13,169.13,0,0,1-30.71-11.7c20.49,7.24,36.52,6.7,44.53-5.33a175.83,175.83,0,0,1-38.28-5c24.61,3,44.1-1.43,49.61-17-13.14,3.12-26.44,5.75-46.51,4.78C207.27,157.31,228.31,147,229.71,127.82Z" transform="translate(-9.63 -4.17)" fill="url(#a)"/></svg>
